HIERARCHY
ROOT hip
{
	OFFSET 0.000000 0.000000 0.000000 
	CHANNELS 6 Xposition Yposition Zposition Xrotation Zrotation Yrotation
	JOINT abdomen
	{
		OFFSET 0.000000 3.402643 0.000000 
		CHANNELS 3 Xrotation Zrotation Yrotation
		JOINT chest
		{
			OFFSET 0.000000 8.438565 -0.680529 
			CHANNELS 3 Xrotation Zrotation Yrotation
			JOINT neck
			{
				OFFSET 0.000000 10.207942 -0.272212 
				CHANNELS 3 Xrotation Zrotation Yrotation
				JOINT head
				{
					OFFSET 0.000000 3.130431 0.000000 
					CHANNELS 3 Xrotation Zrotation Yrotation
					End Site
					{
						OFFSET 0.000000 3.130435 0.000000 
					}
				}
			}
			JOINT lCollar
			{
				OFFSET 3.470700 6.669187 -0.816635 
				CHANNELS 3 Yrotation Zrotation Xrotation
				JOINT lShldr
				{
					OFFSET 3.198488 0.000000 0.000000 
					CHANNELS 3 Zrotation Yrotation Xrotation
					JOINT lForeArm
					{
						OFFSET 10.139888 0.000000 0.000000 
						CHANNELS 3 Yrotation Zrotation Xrotation
						JOINT lHand
						{
							OFFSET 8.370511 0.000000 0.000000 
							CHANNELS 3 Zrotation Yrotation Xrotation
							End Site
							{
								OFFSET 4.083176 0.000000 0.000000 
							}
						}
					}
				}
			}
			JOINT rCollar
			{
				OFFSET -3.470700 6.669187 -0.816635 
				CHANNELS 3 Yrotation Zrotation Xrotation
				JOINT rShldr
				{
					OFFSET -3.198488 0.000000 0.000000 
					CHANNELS 3 Zrotation Yrotation Xrotation
					JOINT rForeArm
					{
						OFFSET -10.139888 0.000000 0.000000 
						CHANNELS 3 Yrotation Zrotation Xrotation
						JOINT rHand
						{
							OFFSET -8.370511 0.000000 0.000000 
							CHANNELS 3 Zrotation Yrotation Xrotation
							End Site
							{
								OFFSET -4.083176 0.000000 0.000000 
							}
						}
					}
				}
			}
		}
	}
	JOINT lThigh
	{
		OFFSET 5.308129 -1.633274 1.361059 
		CHANNELS 3 Xrotation Zrotation Yrotation
		JOINT lShin
		{
			OFFSET -2.041588 -20.007561 0.000000 
			CHANNELS 3 Xrotation Zrotation Yrotation
			JOINT lFoot
			{
				OFFSET 0.000000 -19.190928 -1.224953 
				CHANNELS 3 Xrotation Yrotation Zrotation
				End Site
				{
					OFFSET 0.000000 -2.449906 4.627600 
				}
			}
		}
	}
	JOINT rThigh
	{
		OFFSET -5.308129 -1.633274 1.361059 
		CHANNELS 3 Xrotation Zrotation Yrotation
		JOINT rShin
		{
			OFFSET 2.041588 -20.007561 0.000000 
			CHANNELS 3 Xrotation Zrotation Yrotation
			JOINT rFoot
			{
				OFFSET 0.000000 -19.190928 -1.224953 
				CHANNELS 3 Xrotation Yrotation Zrotation
				End Site
				{
					OFFSET 0.000000 -2.449906 4.627600 
				}
			}
		}
	}
}
MOTION
Frames: 11
Frame Time: 0.011111
13.821772 50.261406 8.563723 -1.330273 -3.391535 -19.135761 56.483601 7.507810 6.079693 -32.268486 9.058168 -0.871332 -13.796251 -5.322542 -3.374293 39.288479 -2.806497 -10.103588 2.656661 -4.973740 1.830115 -74.448799 -14.236507 20.052219 -72.644905 8.764429 18.402191 8.524705 12.647240 -47.581432 -4.438679 -1.473473 2.444106 58.999741 43.616966 -26.969671 46.673431 -6.871835 6.848960 -8.534408 -12.637552 43.031109 -28.134863 18.774879 -9.048573 31.413351 -5.230385 -5.070641 -14.820322 8.076820 -1.063008 -4.079597 -1.376506 8.949701 41.009148 4.563627 6.203677 -30.549028 -5.376507 -1.305037 
13.826676 50.275208 7.996221 -1.440564 -2.990629 -19.140366 56.696972 7.393874 5.476971 -32.105247 9.251150 -0.998741 -14.300196 -5.085647 -3.267589 39.351234 -3.060948 -9.943780 2.656661 -4.973740 1.830115 -74.634735 -14.603498 19.434641 -72.914970 8.716028 18.542406 8.524705 12.647240 -46.546276 -4.438679 -1.473473 2.444106 59.815704 43.756802 -26.863726 47.594078 -7.116199 7.209525 -8.534408 -12.637552 45.169781 -27.991983 18.044106 -8.242607 33.721809 -5.108529 -5.349572 -15.447837 7.050179 -1.180845 -5.274613 -1.591348 8.929607 41.749729 4.511325 6.278528 -30.177006 -5.511110 -1.263384 
13.843538 50.274895 7.390396 -1.293771 -2.956052 -19.020582 56.802471 7.662972 5.733404 -32.454124 9.348164 -1.034798 -14.028783 -5.205564 -3.311728 39.101936 -3.180439 -10.090217 2.656661 -4.973740 1.830115 -74.925453 -14.421065 19.384409 -73.328079 8.635761 18.757931 8.524705 12.647240 -45.081432 -4.438679 -1.473473 2.444106 60.272076 43.116108 -27.216318 48.840290 -7.432934 7.702202 -8.534408 -12.637552 47.357285 -28.319731 17.773079 -7.490606 36.058285 -4.942830 -5.613942 -15.951262 6.042574 -1.339026 -6.556570 -1.318563 8.790642 42.429039 4.469914 6.380228 -29.750015 -5.541432 -1.177032 
13.863160 50.360741 6.857844 -1.386518 -2.467851 -18.921066 56.767403 7.597155 5.537501 -32.692608 9.380366 -1.089786 -13.468035 -5.519372 -3.386698 38.536602 -2.879368 -10.158142 2.656661 -4.973740 1.830115 -75.036316 -14.125487 19.317007 -73.728508 8.551032 18.963100 8.524705 12.647240 -43.411510 -4.438679 -1.473473 2.444106 60.838470 41.757813 -24.963987 50.801456 -7.884605 8.479825 -8.534408 -12.637552 52.083839 -28.096161 16.880550 -6.397770 38.366356 -4.787201 -5.903235 -16.354647 5.476460 -1.433110 -7.698273 -1.708822 8.397934 43.012882 4.407205 6.427109 -29.319981 -5.461494 -1.035388 
13.879718 50.425739 6.303526 -1.331964 -2.103517 -18.774872 56.800823 7.696922 5.151409 -32.585922 9.458331 -1.195983 -13.547794 -5.571660 -3.326625 37.989655 -2.883523 -10.000518 2.656661 -4.973740 1.830115 -75.162140 -14.444963 18.863722 -73.882401 8.517459 19.040823 8.524705 12.647240 -41.712292 -4.438679 -1.473473 2.444106 61.581127 41.439053 -23.890848 52.386040 -8.220936 9.139955 -8.534408 -12.637552 55.345562 -27.988871 16.236027 -5.168691 40.602119 -4.611659 -6.175189 -16.710459 4.877802 -1.528782 -8.944251 -1.982223 7.877324 43.527027 4.348382 6.478688 -28.803102 -5.374074 -0.861424 
13.902406 50.448734 5.757488 -1.304566 -1.662511 -18.697811 56.755867 7.650791 4.863253 -32.527893 9.508079 -1.245174 -13.887084 -5.434272 -3.307755 38.032364 -3.188460 -10.056450 2.656661 -4.973740 1.830115 -75.206726 -14.658843 18.623127 -73.974182 8.496656 19.090628 8.524705 12.647240 -39.710339 -4.438679 -1.473473 2.444106 62.322109 40.943764 -23.712505 53.974182 -8.508070 9.795656 -8.534408 -12.637552 57.493999 -27.583883 15.584002 -3.715003 42.666393 -4.445789 -6.402193 -17.046883 4.430252 -1.611830 -10.180105 -2.352910 7.464631 43.989227 4.319267 6.545990 -28.224989 -5.224379 -0.676970 
13.922947 50.483685 5.247012 -1.322669 -1.239650 -18.726656 56.699390 7.502753 4.710637 -32.567749 9.516818 -1.253439 -14.685774 -4.893386 -3.416126 38.975639 -4.177804 -10.597506 2.656661 -4.973740 1.830115 -75.235985 -14.648403 18.545835 -74.108238 8.468587 19.165682 8.524705 12.647240 -37.942760 -4.438679 -1.473473 2.444106 62.966469 40.070095 -23.722523 55.654900 -8.781932 10.512970 -8.534408 -12.637552 59.183453 -26.909847 14.939154 -2.322608 44.608822 -4.282907 -6.623820 -17.663858 4.184411 -1.607163 -11.231463 -2.704371 7.313354 44.354179 4.289963 6.575653 -27.685022 -5.023241 -0.449395 
13.936130 50.533970 4.747880 -1.516116 -0.643205 -18.798433 56.638432 7.105800 4.436774 -32.608479 9.557964 -1.249603 -14.025723 -5.110698 -3.456087 38.057602 -3.911458 -10.547368 2.656661 -4.973740 1.830115 -75.145576 -14.572329 18.677605 -74.201073 8.448885 19.216566 8.524705 12.647240 -36.341198 -4.438679 -1.473473 2.444106 63.639946 39.018883 -23.755962 57.605965 -9.042987 11.353118 -8.534408 -12.637552 61.243999 -25.933941 14.089794 -0.838930 46.401497 -4.117148 -6.828178 -18.676476 3.952963 -1.539618 -12.160056 -3.309665 7.274811 44.591534 4.260389 6.594656 -27.172962 -4.825517 -0.241354 
13.937663 50.580875 4.262239 -1.673565 -0.227008 -18.771223 56.412003 7.054789 4.104563 -32.574543 9.762589 -1.321388 -13.483318 -5.328286 -3.421345 37.603775 -4.031309 -10.504865 2.656661 -4.973740 1.830115 -75.305321 -14.265845 18.711634 -74.301834 8.422487 19.258177 8.524705 12.647240 -34.876358 -4.438679 -1.473473 2.444106 64.103600 38.063034 -23.964821 59.337864 -9.221215 12.116981 -8.534408 -12.637552 63.021343 -24.950016 13.446688 0.644738 48.064140 -3.977754 -6.989465 -19.130798 3.802160 -1.524286 -12.878035 -3.720261 7.136377 44.669678 4.260532 6.611098 -26.669167 -4.775493 -0.113118 
13.935823 50.650166 3.778131 -1.774536 0.087702 -18.849976 56.407837 6.991650 3.340444 -31.917635 10.033055 -1.444178 -14.266944 -4.856373 -3.167845 37.424072 -4.628538 -10.081305 2.656661 -4.973740 1.830115 -75.454956 -14.750818 18.014786 -74.434975 8.392425 19.333424 8.524705 12.647240 -33.792366 -4.438679 -1.473473 2.444106 64.992638 38.058586 -23.752855 61.180313 -9.359463 12.933865 -8.534408 -12.637552 64.622910 -23.962664 12.967523 2.090926 49.567741 -3.831597 -7.160412 -19.245987 3.895539 -1.476900 -13.523418 -3.954572 7.142133 44.659508 4.270144 6.604286 -26.101793 -4.683817 0.033213 
13.949620 50.718842 3.295555 -1.856220 0.298888 -18.994635 56.295197 6.928846 3.336886 -31.897896 10.036948 -1.421542 -13.586733 -5.038405 -3.139835 36.734859 -4.625082 -9.980995 2.656661 -4.973740 1.830115 -75.381325 -14.557148 18.247244 -74.485100 8.379080 19.359144 8.524705 12.647240 -33.157608 -4.438679 -1.473473 2.444106 65.591545 37.008747 -24.195082 63.109726 -9.443658 13.816998 -8.534408 -12.637552 66.790871 -22.860952 12.558442 3.426414 50.923027 -3.712436 -7.289356 -19.403208 4.038039 -1.410397 -14.062986 -4.080815 7.216451 44.511955 4.270327 6.601645 -25.531715 -4.539490 0.201203 
